# xmcd
#
# Track frame offsets:
# 150
# 17669
# 47981
# 71406
# 87819
# 109274
# 124067
# 152476
# 169361
# 194324
# 205399
# 223539
# 242468
# 258792
# 275573
# 297091
# 315095
# 333860
#
# Disc length: 4639 seconds
#
# Revision: 2
# Processed by: cddbd v1.5.2PL0 Copyright (c) Steve Scherf et al.
# Submitted via: cdrdao 1.2.2
#
DISCID=f9121d12
DTITLE=Latvian Music Information Centre - Pop, Rock LATVIA < 2008
DYEAR=2008
DGENRE=rock
TTITLE0=Marie N.: Sous le soleil du Nord
TTITLE1=Cosmos: Saulriets (Sunset)
TTITLE2=Intars Busulis: Shunky Funky
TTITLE3=Ilze: Send a Message to My Phone
TTITLE4=Yana Kay: Waiting For Your Love
TTITLE5=J. Stever: Secret Mission
TTITLE6=Goran Gora: Two Hands
TTITLE7=Brainstorm: Tin Drums
TTITLE8=Metanoia: Walk
TTITLE9=Melo-M, feat. Intars Busulis: Ghostbusters
TTITLE10=Tribes Of The City: A Day In The City
TTITLE11=Dons: Tukšums (Emptyness)
TTITLE12=Astro'n'out: Apple Green
TTITLE13=Dzelzs Vilks: Mana draudzene nakts (My Friend the Night)
TTITLE14=Skyforger: To The Northern Shores
TTITLE15=Iļģi: Dej, eglīte, lec, eglīte (The Fir Tree is Dancing)
TTITLE16=BONUS - Rama Dance: Jēziņ
TTITLE17=BONUS - Deus Sex Machina: My Sugar Woman
EXTD=LMIC 2008
EXTT0=
EXTT1=
EXTT2=
EXTT3=
EXTT4=
EXTT5=
EXTT6=
EXTT7=
EXTT8=
EXTT9=
EXTT10=
EXTT11=
EXTT12=
EXTT13=
EXTT14=
EXTT15=
EXTT16=
EXTT17=
PLAYORDER=
